<svg xmlns="http://www.w3.org/2000/svg" viewBox="0 0 1440 290">
  <path fill="#FDE1E1" fill-opacity="1" d="M0,128L30,133.3C60,139,120,149,180,176C240,203,300,245,360,240C420,235,480,181,540,149.3C600,117,660,107,720,133.3C780,160,840,224,900,240C960,256,1020,224,1080,213.3C1140,203,1200,213,1260,192C1320,171,1380,117,1410,90.7L1440,64L1440,320L1410,320C1380,320,1320,320,1260,320C1200,320,1140,320,1080,320C1020,320,960,320,900,320C840,320,780,320,720,320C660,320,600,320,540,320C480,320,420,320,360,320C300,320,240,320,180,320C120,320,60,320,30,320L0,320Z"></path>
</svg>